<svg version="1.1" id="Layer_1" xmlns="http://www.w3.org/2000/svg" xmlns:xlink="http://www.w3.org/1999/xlink" x="0px" y="0px"
	 width="100%" viewBox="0 0 1024 1024" enable-background="new 0 0 1024 1024" xml:space="preserve">
<path fill="#000000" opacity="1.000000" stroke="none" 
	d="
M494.817627,834.046021 
	C487.049866,811.149780 478.961243,788.741028 472.115112,765.958923 
	C467.033691,749.049377 461.561646,732.258789 455.179993,715.871887 
	C448.029541,697.510864 439.356964,679.741089 429.642761,662.483337 
	C422.953003,650.598572 415.531311,639.245239 407.884766,628.014160 
	C401.191528,618.183289 394.090240,608.656494 386.314484,599.605225 
	C382.744781,595.449890 379.279572,591.229431 375.328247,587.434204 
	C373.469116,585.648560 373.995239,583.979553 375.165588,582.091614 
	C381.625793,571.670166 388.011841,561.202759 394.459747,550.773621 
	C405.355835,533.149780 415.993835,515.356506 427.312225,498.007629 
	C432.929260,489.397736 433.821289,480.151489 434.928711,470.368866 
	C438.248413,441.043243 438.412933,411.626831 437.294617,382.284088 
	C436.726562,367.379059 436.019867,352.311798 433.498749,337.414124 
	C432.191315,329.688141 431.783691,321.697876 430.658356,313.863892 
	C429.651276,306.852753 428.780670,299.807404 427.389099,292.869598 
	C425.418243,283.043884 423.041351,273.299133 420.806183,263.527069 
	C418.465088,253.291718 415.151886,243.335236 412.242126,233.264984 
	C408.923676,221.780228 404.499756,210.774170 400.082428,199.748535 
	C396.513885,190.841339 392.246552,182.215652 388.375244,173.427185 
	C387.334229,171.063950 385.352844,169.005920 385.698151,165.588791 
	C389.537537,165.040253 392.917603,166.550797 395.758209,168.513031 
	C407.992340,176.964081 416.740906,188.483749 424.282806,201.156799 
	C430.236206,211.160568 435.221527,221.602844 439.774139,232.260284 
	C443.857788,241.819931 447.171326,251.675491 450.479309,261.543060 
	C453.943573,271.876892 456.914978,282.344147 459.892944,292.805481 
	C462.135498,300.683258 464.348297,308.581909 465.616821,316.747101 
	C466.699341,323.714783 469.038666,330.477203 470.477905,337.401978 
	C472.279388,346.069824 473.723083,354.811859 475.332611,363.519775 
	C476.648468,370.638885 478.442139,377.707367 479.181854,384.885071 
	C479.989014,392.716675 481.609406,400.415710 482.684204,408.188721 
	C483.898071,416.967834 484.391266,425.896210 486.535980,434.552704 
	C487.575836,438.749786 487.594299,443.145111 487.919373,447.365936 
	C488.375305,453.285065 488.773651,459.388275 489.827972,465.056519 
	C491.949799,476.463776 490.981079,488.124756 493.739807,499.424194 
	C495.030731,504.711761 494.492950,510.345703 494.812592,515.770874 
	C495.280731,523.716736 496.824280,531.516296 497.071472,539.485413 
	C497.596100,556.400330 498.315552,573.358032 499.687622,590.185242 
	C501.279755,609.710693 501.240234,629.269897 502.690430,648.724426 
	C503.830902,664.023865 502.793854,679.308472 504.064758,694.480530 
	C506.488342,723.413147 503.319153,752.424194 505.544830,781.230408 
	C507.268372,803.537781 505.257385,825.778320 506.850891,848.004395 
	C507.075623,851.139099 506.688660,854.323364 506.495789,857.479309 
	C506.417297,858.764221 506.491028,860.350769 504.672394,860.565308 
	C502.774658,860.789185 502.810028,859.269958 502.412994,857.967834 
	C500.009430,850.085449 497.502380,842.234619 494.817627,834.046021 
z"/>
<path fill="#000000" opacity="1.000000" stroke="none" 
	d="
M523.690552,635.004639 
	C523.616882,621.373230 524.317810,608.207397 525.265686,595.178223 
	C526.321716,580.663086 527.121216,566.154663 527.915405,551.625916 
	C528.662781,537.953979 531.044434,524.368103 531.706726,510.695923 
	C532.307739,498.287354 533.894714,485.978058 535.220825,473.688995 
	C536.309814,463.597015 537.255737,453.411194 538.801392,443.315277 
	C540.064697,435.064117 540.707642,426.600433 542.035522,418.323456 
	C543.491577,409.246979 543.956482,400.039642 546.236755,391.042908 
	C547.597168,385.675537 547.620972,379.946594 548.693237,374.420166 
	C550.226379,366.518127 552.157227,358.628235 553.250977,350.729065 
	C554.593933,341.029877 556.908081,331.592255 558.989258,322.109314 
	C562.085022,308.003265 565.649475,294.004181 569.829529,280.134918 
	C573.546509,267.802032 577.049866,255.382126 581.770630,243.432449 
	C591.598877,218.553711 602.124817,193.934616 622.123047,175.040253 
	C626.189026,171.198730 630.453247,167.376678 636.132629,165.852234 
	C637.406555,165.510300 638.736328,164.756714 639.901550,165.862213 
	C641.450134,167.331284 640.022095,168.624878 639.391235,169.870590 
	C627.242554,193.860153 617.655945,218.925308 610.004639,244.613281 
	C605.741150,258.927338 602.065369,273.538940 599.825195,288.424072 
	C598.307068,298.511536 595.578613,308.446259 594.531067,318.567230 
	C593.379211,329.696899 592.091919,340.838776 590.974548,351.966431 
	C588.044434,381.144562 587.818054,410.354492 588.647827,439.546570 
	C589.026672,452.873260 590.358948,466.267548 591.501770,479.608643 
	C592.364380,489.678864 598.404236,497.579529 603.582947,505.802826 
	C609.770752,515.628357 615.762573,525.577209 621.858276,535.460999 
	C629.398865,547.687805 636.960083,559.901917 644.509216,572.123535 
	C645.551880,573.811401 646.615540,575.488098 647.603638,577.207703 
	C652.351807,585.470703 651.928162,585.119873 645.564941,592.560242 
	C637.513062,601.975098 629.642883,611.570557 622.464172,621.721008 
	C612.509766,635.796326 602.877075,650.078979 594.695435,665.246948 
	C587.067200,679.389038 580.088501,693.841919 573.924866,708.740967 
	C567.713318,723.755737 562.181091,738.979248 557.374817,754.450134 
	C548.893311,781.751587 539.656738,808.795410 530.548706,835.886230 
	C528.127197,843.088623 526.797729,850.640503 523.679871,857.632019 
	C523.105957,858.919067 523.278809,860.975098 521.055298,860.468201 
	C519.061462,860.013672 519.501709,858.168640 519.503845,856.729858 
	C519.529724,839.578186 519.082520,822.407837 519.728638,805.278870 
	C521.021790,770.999939 519.976746,736.693237 521.147949,702.447083 
	C521.652039,687.707214 520.781738,672.903381 522.312195,658.269470 
	C523.107910,650.660889 523.638733,643.118408 523.690552,635.004639 
z"/>
</svg>